<?xml version="1.0" standalone="no"?><!DOCTYPE svg PUBLIC "-//W3C//DTD SVG 1.1//EN" "http://www.w3.org/Graphics/SVG/1.1/DTD/svg11.dtd">
<svg t="1661928031424" class="icon" viewBox="0 0 1024 1024" version="1.1" xmlns="http://www.w3.org/2000/svg" p-id="2392" width="200" height="200" xmlns:xlink="http://www.w3.org/1999/xlink">
<path d="M384 896m-85.333333 0a85.333333 85.333333 0 1 0 170.666666 0 85.333333 85.333333 0 1 0-170.666666 0Z" p-id="2393" fill="#707070"></path>
<path d="M853.333333 896m-85.333333 0a85.333333 85.333333 0 1 0 170.666667 0 85.333333 85.333333 0 1 0-170.666667 0Z" p-id="2394" fill="#707070"></path>
<path d="M409.6 725.333333c-59.733333 0-110.933333-42.666667-123.733333-102.4L213.333333 264.533333v-4.266666L179.2 85.333333H42.666667c-25.6 0-42.666667-17.066667-42.666667-42.666666s17.066667-42.666667 42.666667-42.666667h170.666666c21.333333 0 38.4 12.8 42.666667 34.133333L290.133333 213.333333H981.333333c12.8 0 25.6 4.266667 34.133334 17.066667 8.533333 8.533333 8.533333 21.333333 8.533333 34.133333l-68.266667 358.4c-12.8 59.733333-68.266667 102.4-128 102.4H409.6c4.266667 0 0 0 0 0zM307.2 298.666667l59.733333 307.2c4.266667 21.333333 21.333333 34.133333 42.666667 34.133333h413.866667c21.333333 0 38.4-12.8 42.666666-34.133333L930.133333 298.666667H307.2z" p-id="2395" fill="#707070"></path>
</svg>